<svg width="33" height="18" viewBox="0 0 33 18" fill="none" xmlns="http://www.w3.org/2000/svg">
<rect x="0.0703125" width="31.9945" height="18" rx="3.6" fill="#2D2D2D"/>
<path d="M18.7002 9.00004C18.7002 10.9419 17.6681 12.6732 16.0654 13.7903C17.272 14.6296 18.7676 15.0957 20.3202 15.0957C24.1165 15.0957 27.2051 12.3612 27.2051 9.00004C27.2051 5.63891 24.1165 2.90442 20.3202 2.90442C18.7676 2.90442 17.272 3.37048 16.0678 4.20809C17.6681 5.32682 18.7002 7.05819 18.7002 9.00004Z" fill="#FFCD00"/>
<path d="M18.6999 9.00004C18.6999 7.05819 17.6678 5.32682 16.0651 4.20981C14.8937 3.39336 13.4181 2.90442 11.8151 2.90442C8.01874 2.90442 4.93018 5.63891 4.93018 9.00004C4.93018 12.3612 8.01874 15.0957 11.8151 15.0957C13.4181 15.0957 14.8937 14.6067 16.0651 13.7903C17.6679 12.6732 18.6999 10.9419 18.6999 9.00004Z" fill="#FF5023"/>
</svg>
